<svg xmlns="http://www.w3.org/2000/svg" viewBox="0 0 920 460"><path fill="#007934" d="M0 0h920v460H0z"/><path fill="#fff" d="M280 0h360v460H280z"/><path fill="#007934" d="m463.32 30.57-2.41 26.12-8.84 1.33s6.14 3.45 7.21 6.91c.17.56.1 1.01-.14 1.36a1.94 1.94 0 0 1-.32.32c-1.78 1.37-7.04.72-7.04.72s6.97 5.88 7.5 8.01c.01.05.03.1.03.140.04.01.11 0 .14-.01.03-.05.09-.06.12a1.11 1.11 0 0 1-.23.32c-1.64 1.51-9.37 1.94-9.37 1.94s8.57 6.11 9.1 9.57c.49 3.14.08 4.98 0 5.29-.6-.51-14.41-12.12-23.33-8.73-.44.23-.71.45-.81.67a.55.55 0 0 0-.03.35c.62 1.93 13.23 3.91 22.02 11.51-.22 1.9-25.05-6.05-25.97-1.07.78 1.41 26.73 5.14 28.65 8.53-9.56.35-29.3-2.1-28.65 1.04-2 3.63 18.65 1.58 27.31 4.54 2.54 2.87 2.29 5.28-2.12 5.58-8.35-3.97-27.03-6.92-27.08-1.85v.03c0.01.03.02.03.03.01.01.02.04.03.06.03.03.1.06.14.09 2.11 1.05 19.51.54 26.06 4.86-9.29 2.1-40.78-4.26-40.98-1.16.9 1.45 5.88 7.82 14.46 7.55 8.57-.27 28.41 3.47 29.75 6.13a.36.36 0 0 1 .03.23c-.58 1.86-26.13-5.67-35.95-1.04-10.18 4.8 29.2 1.89 35.63 7.75 6.43 5.86-12.86-.55-12.86-.55s-26.78-3.71-30.8-1.85c-4.02 1.87-8.58 6.13-8.58 6.13s2.67 5.32 5.35 4.25c.41-.16.69-.2.84-.1400.030.03 0 00.03.03.03.03.010.02.02.03.030.01.02.02.03.03l.03.03a.54.54 0 0 1 .03.12c.06.8-1.83 3.12-1.83 3.12s37.53 9.04 45.84 17.03c8.31 7.99-47.7-12.52-47.7-12.52s-22.51 8.26 1.34 8.79c-2.66 3.87 1.1 6.25 1.34 6.39 0 0 39.67 8.27 43.69 14.66 4.02 6.39-27.06-6.14-34.03-9.6-6.72-3.34-25.43 1.77-26.5 3.33a.56.56 0 0 0-.03.06c0.010.02 0 .03a.39.39 0 0 0 0 .06v.03c0.010.02 0 .030.01.03.02.03.030.010.02 0 .03a.93.93 0 0 0 .06.09c0.01.02.02.03.03 1.2 1.31 9.55 3.12 9.8 5.38v.03a.86.86 0 0 1-.09.38c-1.05 2.03-11.02 2.89-11.43 4.8-.01.03-.03.08-.03.12 0 2.13 50.12 12.52 63.52 23.71s-39.38-13.33-39.38-13.33 2.95 4 0 5.06c-2.95 1.06-13.42-14.92-30.57-5.06-3.12 4.06 14.97 7.28 19.57 7.72-1.57 4.02-2.94 5.35 3.49 9.34.7.44 1.1.7 1.25.84l.03.03.03.03c00 0 .03 0 .03v.03h-.06c-1-.15-12.55-6.06-13.76-6.3-.010-.05 0-.06 0h-.03c0 .53 1.34 6.94 1.34 6.94-5.94-4.79-13.11-6.24-19.84-1.33-.01.28-.06 4.88 6.69 7.72-3.8 7.73 4.3 5.33 17.16 12.52-19.11-4.97-20.65 4.26-6.98 6.39s51.19 3.47 60.03 14.92c1.86 2.42 2.37 3.63 2.01 4.02-1.48 1.33-15.04-8.43-17.02-8.7900-.030-.03 0l-.03.03a.9.9 0 0 0-.09.14c-.48 1.06-.93 5.67-.93 5.67-5.72-3.29-10.96-6.24-17.8-7.63-.54 1.06-.42 2.58-.96 3.64-6.21-4.45-11.61-7.58-20.62-8.01l-1.08 4.28s-7.51-9.33-22.25 0c-8.23 5.87 31.09 2.12 37.52 9.05 6.43 6.93 1.34 7.98 1.34 7.98-5.36-1.95-10.7-3.89-16.05-5.84 0 0-19.04-3.48-24.4.78-5.36 4.26 78.24 14.66 80.65 26.12 1.63 6.21-19.64-6.51-38.04-11.97-.71 2.03-1.44 4.07-2.15 6.1-.44-.43-7.55-7.31-15.53-8.500-.03.02-.03.03v.06c.01.87 1.63 7.11 1.63 7.11s-20.61-9.6-31.06-4.54c-10.45 5.06 36.43 7.73 40.72 12.52.47.52.66.91.64 1.16a.55.55 0 0 1-.06.14c-1.03 1.51-15.02-4.06-16.4-1.3-1.61 3.2-24.38-5.85-24.11-1.59.27 4.26 3.23 6.65 3.23 6.65s47.43 4.53 49.04 10.12c1.61 5.59-26.26-3.18-26.26-3.18s-2.7 3.98-.55 5.84c.08.07.15.14.17.17v.03h-.03c-.97-.32-16.07-10.15-14.6-2.6-5.91-2.34-21.17-9.59-19.02-3.99 2.11 5.51 41.91 13.36 43.08 13.59-1.05.08-17.88 1.48-17.1 5.87-22.55-13.66-22.5-5.47-21.99-4.83v.03c-1.27-.2-29.02-7.07-6.95 4.8 11.83 6.37 14.72 8.85 14.78 9.8 0 .020.07 0 .090.03-.02.06-.03.090.01-.03.02-.03.03-.01.02-.02.04-.03.06l-.03.03-.03.03-.03.03c-.010-.02.03-.03.03-.46.29-1.57.17-1.89.17h-.06a.13.13 0 0 0-.03.03l.03.03c.31.47 2.04 5.17 1.95 5.990.01-.03.05-.03.06000.03 0 .03 0 0-.030-.03 00 0 0.03 0 .03h-.06c-.97-.24-15.58-8.01-20.59-8.53-5.09-.53-29.21 6.65-3.49 17.84s41.53-2.67 55.73-1.07c14.2 1.6 20.91 4 19.57 8.53-1.34 4.53-14.53-14.85-28.39 1.91-15.77-3.1-26.46-4.9-18.32 6.62-25.75-9.57-41.47 2.92-9.05 7.98 31.86.93 51.45-7.72 51.45-7.72s5.38 9.88 13.15 2.95c7.41-6.6 7.99 1.8 8.26 2.6.01.01.03.02.03.03000.03 0 .03h.03c.57-.14 7.47-3.21 7.47-3.21h1.89v63.94c8.66.09 17.31.17 25.97.26 0 0-8.31-55.67-3.75-63.13 4.41-7.23 8.59-6.45 8.84-6.39 0 0 16.89 5.05 18.76 4.25.02-.01.07-.02.09-.03.01-.01.04-.02.06-.03.03-.02.09-.06.12-.09.010.02-.02.03-.03 1.37-1.25-.03-6.16 8.55-5.41 2.65-.96 1.64-5.16 3.35-6.19.03-.02.08-.04.12-.06.06-.03.16-.07.23-.09.1-.03.23-.05.35-.06 2.68-.27 54.39 14.38 65.65.52-2.95-7.73-13.14-.53-15.82-.26-2.41 0-12.6-4.8-18.5 0-5.36-4-29.73-6.65-29.73-6.65-3.22-3.2 58.15 1.59 61.63-.81 7.23-7.19-13.39-6.39-16.61-3.99-5.72-3.46-12.9-3.21-17.28-.81-2.1-4.99-22.02-2.83-33.1-4.25-3.54-2.07-2.95-3.25-.55-4.54 23.13.98 46.15 3.98 69.4 2.95 6.28-8.15-7.91-11.22-16.61-4.28-5.11-8.35-15.54-.27-22.51-1.07-6.97-.8-3.75-9.31 5.09-7.98 8.84 1.33 24.66-.54 27.6-4.54 2.95-4-1.76-8.05-16.35-4.25-4.94-4.8-15.79-.01-20.88 1.59-6.77-3.76-22.53-.52-27.89.81-5.25-3.24 27.6-8.53 27.6-8.53 12.68-.22 19.83-2.4 23.85-3.47 19.17-10.22-.27-11.3-10.32-3.88-6.24-4.85-12.17.42-17.8 2.29-5.28 1.75-15.03 3.02-16.23 2.52a.63.63 0 0 1-.06-.03c00-.03-.03-.03-.03l-.03-.03V303.39a.47.47 0 0 1 .03-.06c.79-1.22 15.24-10.04 15.24-10.04s18.76-1.35 22.51-1.88c2.29-.33 10.3-4.1 10.3-5.5-.07-.87-3.41-.79-13.53 1.76-9.11.8-14.46.28-17.95.55-5.6-.58-7.96-1.16-8.44-1.68a.66.66 0 0 1-.06-.09c-.04-.09-.01-.2.06-.29.02-.02.06-.07.09-.09 1.37-1.09 10.24-1.88 10.24-1.88s27.06-2.47 28.85-3.88l.03-.03c.01-.01.02-.05.03-.060-.01.03-.02.03-.03.56-11-22.96-5.92-23.59-5.84.07-7.74-21.22-.11-22.22 0h-.03c-.92-.54-1.31-1.1-1.4-1.62-.03-.2 0-.42.06-.61.53-1.6 3.75-2.83 3.75-2.83 5.9-1.42 14.71-1.86 17.02-3.73 0 0 16.64-.15 18.61-4.54-4.08-11.2-35.21 1.98-39.38 3.99-.83 0-1.35-.21-1.6-.55-1.37-1.99 5.39-8.54 5.61-8.7600.02-.03.03-.03 1.03-.29 25.88-1.55 37.75-17.55.84-9.89-14.19 5.58-14.19 5.58-1.12-12.83-16.34.81-25.19 1.88-8.84 1.06-9.1-4-2.94-4.8 6.16-.8 13.12-.28 16.61-9.6 3.48-9.33 13.95.54 15.82-2.92 1.82-3.36-3.42-6.22-3.75-6.39 0 0 7.76-8.02-4.83-7.75-12.47.26-28.59-1.55-28.91-1.59.78-.3 13.48-5.06 25.42-4.8 12.33.27 5.62-8.79-6.17-8.79-11.79 0-17.95-3.99-17.95-3.99l20.1-7.46-1.34-5.58s11.79-9.33-4.83-7.2c-16.61 2.13-18.5 2.4-18.5 2.4s-32.7 4.98-33.48 5.06h-.03c-.32-.05-3.56-1.05-4.16-2.29a1.57 1.57 0 0 1-.06-.14 1.13 1.13 0 0 1-.03-.17c0-.06-.01-.14 0-.2.14-.65 1.14-1.35 3.72-2 8.57-2.13 38.87-8.25 43.42-6.65.59.21 1.02.16 1.28-.06 1.71-1.54-3.97-11.34-17.92-12.72-16.08-1.6-25.97 3.99-25.97 3.99s-10.46-3.74-.81-6.94c9.65-3.2 24.93 1.07 24.93 1.07s17.14-5.07 2.94-7.2c-14.2-2.13-18.68 1.92-25.19 2.14-2.6-3.22 22.3-3.98 23.85-6.65-2.62-4.8-18.03 0-27.05 0-3.84-1.62-4.09-4.25.26-5.87 9.2-.36 17.85.18 27.05-.17-.27-4.88.01-10.68-.26-15.56-11.67-2.12-25.36 1.55-31.91 1.24 1.75-5.33 26.95-6.71 29.75-8.16 5.79-7.2-24.17-.11-24.9 0-5.32-.78-5-4.12-1.63-6.13 7.77-.89 25.2 1.13 23.88-4.11-1.01-4.91-12.08-2.28-16.64-1.22-4.55 1.07-11.26.26-11.26.26-2.92-3.9 26.27-2.31 26-5.32-.38-3.46-18.5-1.08-24.66-.81-4.74-3.25 22.29-5.42 23.56-5.84l.03-.03c1.01-8.86-18.76 0-22.51 0-.65 0-1.13-.16-1.48-.43a2.22 2.22 0 0 1-.23-.23c-1.29-1.49-.14-4.92-.14-4.92s7.04-3.15 7.47-3.9c0-.01.03-.02.03-.03V83.07l-.03-.03a.58.58 0 0 0-.09-.09c-.83-.63-5.67-2.23-6.31-2.29h-.03c00-.03-.03-.03-.03a.22.22 0 0 1-.03-.03c00-.03-.02-.03-.03-.36-.74.09-6.04.09-6.04s5.58-4.16 5.93-5.81c0-.010-.04 0-.060-.01 0-.04 0-.06v-.06c0-.010-.05 0-.06v-.03c0-.02-.02-.04-.03-.060-.010-.02 0-.0300-.03-.02-.03-.03-.01-.01-.02-.02-.03-.03-.01-.01-.02-.04-.03-.06l-.03-.03a.94.94 0 0 0-.09-.06l-.06-.03c-1.41-.67-7.24 1.33-7.24 1.33v-5.32s5.11-.55 5.64-2.95c.03-.14.02-.28 0-.41-.01-.05-.01-.13-.03-.17a1.35 1.35 0 0 0-.14-.32c-.01-.01-.05-.04-.06-.06-1.17-1.5-5.93-1.71-5.93-1.71-.89-9.32-1.78-18.64-2.68-27.97zm-4.77 91.33v3.67s-6.01-.31-7.13-1.24c-.010-.02-.02-.03-.03l-.03-.03-.03-.03-.03-.03c-.01-.01-.02-.04-.03-.06000-.02 0-.0300-.03-.02-.03-.03V123.96c.01-.02.02-.07.03-.090-.01.03-.02.03-.03.01-.02.04-.06.06-.09l.03-.03.06-.06c.04-.04.09-.08.14-.12 2.02-1.4 6.04-1.37 6.83-1.59.010.020.03 0 .010.02-.03.03-.0300.030.03 0 00.03-.03.03-.03zm8.52 4.89c.21 0 11.97.1 13 1.62.01.01.02.04.03.06.01.02.02.07.03.090.010.04 0 .06 0 .020.07 0 .09a.97.97 0 0 1-.03.09c-.9 1.9-12.8 3.04-12.8 3.04l-.23-5.03zm-.67 7.26c00.030.03 0 00.020.03 0 .7.18 5.57.34 6.17 1.16.01.01.02.02.03.03000.02 0 .030.01.03.02.03.03V135.44c00-.03.02-.03.03000.02 0 .03-.01.01-.02.04-.03.06l-.03.03c000.02 0 .03-1.01 1.23-5.5 1.56-5.73 1.56h-.03c0 0 0-.03 0-.030-.01-.03-.02-.03-.03-.2-.41-.41-3.06-.41-3.06zm-35.86 9.66c3.84-.2 11.46.7 25.77 4.63 0 .3.29 3.99.17 4.600-.03.03-.03.03v.03c00-.03.03-.03.03-.22-.11-26.03-7.49-28.39-7.38-.060-.14.01-.2 0a1.95 1.95 0 0 1-.17-.03c-.06-.02-.15-.06-.2-.09-.02-.01-.07-.02-.09-.03-.010-.02-.03-.03-.03a.83.83 0 0 1-.2-.2c0-.01-.03-.02-.03-.03l-.03-.06c0-.010-.02 0-.030-.01-.03-.05-.03-.06V144.96a.7.7 0 0 1 .03-.12.87.87 0 0 1 .17-.26c.39-.38 1.38-.77 3.29-.87zm13.38 10.9c4.11-.15 13.97 2.21 14.51 2.08 0 .78.44 4.47-.06 5.230.01-.02.02-.03.030.01-.02.02-.03.03-.010-.02.03-.03.03a.69.69 0 0 1-.06.03c-.010-.020-.03 0h-.06c-.010-.020-.03 0-.84-.21-15.38-4.8-15.94-6.68-.01-.030-.09 0-.12a.38.38 0 0 1 .09-.2c.01-.01.02-.02.03-.03l.03-.03c.28-.22.86-.35 1.6-.38zm40.49 10.12c3.93-.08 6.7.26 5.67 1.45-2.81 3.24-22.19 5.9-22.19 5.9l-.35-5.9c.42-.06 10.27-1.32 16.87-1.45zm-55.49 18.39c3.3-.17 10.97 1.63 28.07 8.82l.12 4.25s-28.95-8.73-29.96-10.18c-.5-.71-1.42-2.72 1.77-2.89zm56.72 6.33c.88-.04 1.5.04 1.72.26.01.01.03.02.03.03.01.02.02.07.03.090.02.03.06.03.09-.01.12-.1.29-.26.46-2.69 3.01-17.16 6.01-17.16 6.01v-3.9h.03c.66-.02 11.28-2.82 15.59-3.04zm-63.47.52c4.32-.23 14.08 2.05 35.95 12.35 0 .11.2 3.66.12 3.99h-.03c-1.3-.41-39.35-13.71-39.35-13.71-.04-.15-.61-2.42 3.32-2.63zm72.45 16.63c1.11-.05 1.83.05 2.01.29a.33.33 0 0 1 .03.12c-.01.12-.1.26-.29.43-3.45 3.1-25.45 6.85-26.23 6.91h-.03c0 0-.030-.03 0l-.03-.03a.41.41 0 0 1-.03-.06c0-.010-.02 0-.030-.01-.03-.04-.03-.06-.14-.72.32-3.23.35-3.59v-.03c0 0.03 0 .03 0 00.02.03.03.03h.03c1.41-.02 18.27-3.75 24.2-3.99zm-64.69 9.69c6.55-.34 26.4 8.71 27.37 8.99h.03c-.1.41-.12 3.67-.2 4.190.010.05 0 .0600-.030-.03 0-.53-.28-27.73-11.51-28.94-10.61-.75-1.77.03-2.54 1.77-2.63zm58.52 2.37c1.36-.06 2.360 2.68.17a.25.25 0 0 1 .09.09c00 0 .02 0 .03a.39.39 0 0 1 0 .03c0.01.01.05 0 .060.01-.02.02-.03.03a.78.78 0 0 1-.09.09c-2.02 1.79-20.77 5.47-20.77 5.47s-.09-3.45-.09-3.79c.53-.11 12.63-1.93 18.21-2.17zm-1.51 11.95c1.32-.04 2.25.03 2.47.26l.03.03c.01.010.05 0 .06 0 .01.03.02.03.030.01-.03.02-.03.030.01.01.04 0 .060.01-.03.02-.03.03-.01.03-.03.06-.06.09-.02.02-.06.07-.09.09-2.02 1.74-17.92 5.06-17.92 5.06s-.44-3.79-.44-3.9c.44.01 11.07-1.66 16.03-1.82zm-67.07.95c3.83-.24 13.34 1.33 36.79 9.8l.79 4.57s-39.05-12.54-40.17-12.93c0 0 0-.03 0-.03 0-.02-.01-.08 0-.14a.99.99 0 0 1 .2-.46c.28-.34.9-.72 2.38-.81zm51.45 9.92c.47.1 7.02.32 8.23 1.33.010.03.02.03.03l.03.03c00.02.02.03.03.01.01.02.04.03.060.01.03.02.03.03.01.02.02.07.03.09V243.23c0.01-.03.05-.03.060.010.02 0 .03l-.03.06c-1.01 1.56-7.85 2.14-7.85 2.14s-.34-3.06-.49-4.02zm15.85 8.91c1.52-.04 2.62.14 2.85.58.13.3-.12.74-.84 1.33-5.61 4.58-17.83 5.47-17.83 5.47v-5.03h.03c.69-.08 10.73-2.22 15.79-2.34zm15.56 4.69c1.94-.07 2.77.25 3.03.69.02.04.05.1.06.14.02.07.04.18.03.26-.06.57-.69 1.26-1.16 1.71-1.91 1.78-32.31 11.37-32.31 11.37s-.23-6.36-.12-6.91c17.78-5.36 26.47-7.11 30.48-7.26zm-19.66 17.99c1.93-.07 3.44.04 3.9.49.03.03.07.08.09.12.01.02.02.07.03.09.01.020.06 0 .09 0 .04.01.1 0 .14-.02.09-.08.19-.15.29-2.6 2.54-15.24 2.92-15.24 2.92v-3.15c2.37-.08 7.66-.84 11.37-.98zm12.65 5.18c.6-.01.97.08 1.02.26a.28.28 0 0 1 0 .06c-.03.15-.21.37-.58.64-5.05 3.57-24.02 7.23-24.02 7.23s.23-2.5.35-3.1c.53-.01 18.7-4.98 23.24-5.09zm10.64 3.96c2.24-.02 3.94.31 4.92 1.01h.03v.12c-.1.69-1.52 3.94-6.52 5.35-6.23-.55-32.69 7.22-33.22 7.3500-.030-.03 00-.010-.04 0-.06-.01-.5.35-3.18.35-3.18 9.12-5.42 25.69-10.5 34.47-10.59zm-67.74 15.27h.17c11.45 1.23 15.72 5.49 16.93 7.2-2.28 3.98-20.37-4.95-18.47-6.85.22-.19.67-.33 1.37-.35zm65.59.75c.45-.02.87.07 1.16.26.12.08.24.19.32.32.11.18.18.42.2.69-1.2 1.84-7.38 1.03-7.77.98.31-.11 3.88-2.17 6.08-2.25zm-24.52 12.38c.85-.04 1.55.05 1.95.29.05.03.11.08.14.12.01.01.05.04.06.06.02.02.04.07.06.09.01.02.02.06.03.09.07.22.04.52-.15.87-1.79 3.35-9.66 2.11-9.66 2.11v-2.34h.03c.44.04 4.78-1.16 7.53-1.27zm-46.3 8.82c2.42-.12 4.53 1.46 6.75 2.72 4.94-1 15.07.78 15.07.78v4.46a.11.11 0 0 1-.03.03c00-.020-.03 0-.92.16-12.79-.36-15.44-2.02-2.16 0-8.28-3.21-8.75-4.860-.01-.03-.04-.03-.060-.020-.07 0-.09v-.06c0-.010-.05 0-.06v-.03c0-.01.03-.05.03-.060-.010-.02 0-.03.85-.45 1.67-.68 2.44-.72zm51.92 2.2c1.86-.1 2.64.47 1.19 2.52-4.04 5.69-14.48 3.35-14.48 3.35l-.44-3.53c3.68.14 10.42-2.17 13.73-2.34zm-39.03 11.54c4.22-.2 8.81 1.48 8.81 1.48.11.21 2.27 4.45.35 5.87-.07.05-.15.1-.23.14-2.36 1.23-13.62-.96-14.28-5.47 1.32-1.39 3.29-1.93 5.35-2.02zm-43.54 2.2c3.86-.23 8.18 2.13 8.67 2.37.010.03 0 .03 0 0 .13-.15 4.28-.15 4.28s-7.65-2.12-10.06-6.39a7.58 7.58 0 0 1 1.51-.26zm73.56.58c4.31-.03 9.51.98 10.27 2.43.14.3.1.62-.17.95-2.13 2.56-14.25.23-14.25.23v-3.12c1.08-.31 2.56-.48 4.16-.49z"/></svg>